<svg xmlns="http://www.w3.org/2000/svg" viewBox="0 0 180 180" fill="none">
  <defs>
    <radialGradient id="bg" cx="50%" cy="40%" r="70%">
      <stop offset="0%" stop-color="#1c1c20"/>
      <stop offset="100%" stop-color="#09090b"/>
    </radialGradient>
    <radialGradient id="body" cx="35%" cy="32%" r="68%">
      <stop offset="0%" stop-color="#fda4af"/>
      <stop offset="35%" stop-color="#fb7185"/>
      <stop offset="70%" stop-color="#f43f5e"/>
      <stop offset="100%" stop-color="#9f1239"/>
    </radialGradient>
    <linearGradient id="leaf" x1="50%" y1="0%" x2="50%" y2="100%">
      <stop offset="0%" stop-color="#4ade80"/>
      <stop offset="100%" stop-color="#15803d"/>
    </linearGradient>
    <linearGradient id="leafDark" x1="50%" y1="0%" x2="50%" y2="100%">
      <stop offset="0%" stop-color="#22c55e"/>
      <stop offset="100%" stop-color="#166534"/>
    </linearGradient>
  </defs>

  <rect width="180" height="180" rx="36" fill="url(#bg)"/>

  <circle cx="90" cy="105" r="62" fill="url(#body)"/>

  <ellipse cx="68" cy="84" rx="20" ry="11" fill="#ffffff" fill-opacity="0.4"/>
  <ellipse cx="62" cy="92" rx="6" ry="3" fill="#ffffff" fill-opacity="0.25"/>

  <rect x="85" y="2" width="10" height="28" rx="5" fill="#15803d"/>

  <path d="M90 45 C 78 33, 90 14, 102 33 C 99 39, 93 45, 90 45 Z" fill="url(#leafDark)"/>

  <path d="M90 48 C 62 40, 32 43, 28 56 C 40 65, 68 62, 90 53 Z" fill="url(#leaf)"/>
  <path d="M90 48 C 118 40, 148 43, 152 56 C 140 65, 112 62, 90 53 Z" fill="url(#leaf)"/>

  <path d="M90 51 C 78 62, 50 65, 44 60 C 53 53, 75 50, 90 51 Z" fill="url(#leafDark)"/>
  <path d="M90 51 C 102 62, 130 65, 136 60 C 127 53, 105 50, 90 51 Z" fill="url(#leafDark)"/>

  <path d="M40 50 C 47 47, 54 47, 60 50" stroke="#bbf7d0" stroke-width="1.5" fill="none" stroke-linecap="round" opacity="0.7"/>
  <path d="M120 50 C 127 47, 134 47, 140 50" stroke="#bbf7d0" stroke-width="1.5" fill="none" stroke-linecap="round" opacity="0.7"/>
</svg>
