<svg xmlns="http://www.w3.org/2000/svg" viewBox="0 0 64 64" fill="none">
  <defs>
    <radialGradient id="body" cx="35%" cy="32%" r="68%">
      <stop offset="0%" stop-color="#fda4af"/>
      <stop offset="35%" stop-color="#fb7185"/>
      <stop offset="70%" stop-color="#f43f5e"/>
      <stop offset="100%" stop-color="#9f1239"/>
    </radialGradient>
    <linearGradient id="leaf" x1="50%" y1="0%" x2="50%" y2="100%">
      <stop offset="0%" stop-color="#4ade80"/>
      <stop offset="100%" stop-color="#15803d"/>
    </linearGradient>
    <linearGradient id="leafDark" x1="50%" y1="0%" x2="50%" y2="100%">
      <stop offset="0%" stop-color="#22c55e"/>
      <stop offset="100%" stop-color="#166534"/>
    </linearGradient>
  </defs>

  <circle cx="32" cy="38" r="22" fill="url(#body)"/>

  <ellipse cx="24" cy="30" rx="7" ry="4" fill="#ffffff" fill-opacity="0.38"/>
  <ellipse cx="22" cy="33" rx="2" ry="1" fill="#ffffff" fill-opacity="0.25"/>

  <rect x="30.5" y="2" width="3" height="9" rx="1.5" fill="#15803d"/>

  <path d="M32 16 C 28 12, 32 6, 36 12 C 35 14, 33 16, 32 16 Z" fill="url(#leafDark)"/>

  <path d="M32 17 C 22 14, 12 15, 10 20 C 14 23, 24 22, 32 19 Z" fill="url(#leaf)"/>
  <path d="M32 17 C 42 14, 52 15, 54 20 C 50 23, 40 22, 32 19 Z" fill="url(#leaf)"/>

  <path d="M32 18 C 28 22, 18 23, 16 21 C 19 19, 27 18, 32 18 Z" fill="url(#leafDark)"/>
  <path d="M32 18 C 36 22, 46 23, 48 21 C 45 19, 37 18, 32 18 Z" fill="url(#leafDark)"/>

  <path d="M14 18 C 17 17, 20 17, 22 18" stroke="#bbf7d0" stroke-width="0.6" fill="none" stroke-linecap="round" opacity="0.7"/>
  <path d="M42 18 C 45 17, 48 17, 50 18" stroke="#bbf7d0" stroke-width="0.6" fill="none" stroke-linecap="round" opacity="0.7"/>
</svg>
